<mxfile host="app.diagrams.net" agent="Mozilla/5.0 (Macintosh; Intel Mac OS X 10_15_7) AppleWebKit/537.36 (KHTML, like Gecko) Chrome/125.0.0.0 Safari/537.36" version="24.7.17">
  <diagram name="Page-1" id="WCZsyvMZrLrrn1Ahl4cW">
    <mxGraphModel dx="1224" dy="592" grid="1" gridSize="10" guides="1" tooltips="1" connect="1" arrows="1" fold="1" page="1" pageScale="1" pageWidth="827" pageHeight="1169" math="0" shadow="0">
      <root>
        <mxCell id="0" />
        <mxCell id="1" parent="0" />
        <mxCell id="GpUKaZcXAXT4iPthAJ1R-30" value="" style="shape=ext;double=1;rounded=0;whiteSpace=wrap;html=1;sketch=1;hachureGap=4;jiggle=2;curveFitting=1;fontFamily=Architects Daughter;fontSource=https%3A%2F%2Ffonts.googleapis.com%2Fcss%3Ffamily%3DArchitects%2BDaughter;" vertex="1" parent="1">
          <mxGeometry x="670" width="380" height="610" as="geometry" />
        </mxCell>
        <mxCell id="GpUKaZcXAXT4iPthAJ1R-1" value="" style="shape=cylinder3;whiteSpace=wrap;html=1;boundedLbl=1;backgroundOutline=1;size=15;sketch=1;curveFitting=1;jiggle=2;labelBackgroundColor=none;" vertex="1" parent="1">
          <mxGeometry x="865" y="24.159999999999997" width="60" height="80" as="geometry" />
        </mxCell>
        <mxCell id="GpUKaZcXAXT4iPthAJ1R-2" value="" style="shape=cylinder3;whiteSpace=wrap;html=1;boundedLbl=1;backgroundOutline=1;size=15;sketch=1;curveFitting=1;jiggle=2;labelBackgroundColor=none;" vertex="1" parent="1">
          <mxGeometry x="860" y="180" width="60" height="80" as="geometry" />
        </mxCell>
        <mxCell id="GpUKaZcXAXT4iPthAJ1R-3" value="" style="shape=cylinder3;whiteSpace=wrap;html=1;boundedLbl=1;backgroundOutline=1;size=15;sketch=1;curveFitting=1;jiggle=2;labelBackgroundColor=none;" vertex="1" parent="1">
          <mxGeometry x="860" y="350" width="60" height="80" as="geometry" />
        </mxCell>
        <mxCell id="GpUKaZcXAXT4iPthAJ1R-4" value="" style="shape=cylinder3;whiteSpace=wrap;html=1;boundedLbl=1;backgroundOutline=1;size=15;sketch=1;curveFitting=1;jiggle=2;labelBackgroundColor=none;" vertex="1" parent="1">
          <mxGeometry x="870" y="490" width="60" height="80" as="geometry" />
        </mxCell>
        <mxCell id="GpUKaZcXAXT4iPthAJ1R-8" value="Trips" style="text;html=1;align=center;verticalAlign=middle;resizable=0;points=[];autosize=1;strokeColor=none;fillColor=none;sketch=1;curveFitting=1;jiggle=2;labelBackgroundColor=none;" vertex="1" parent="1">
          <mxGeometry x="865" y="220" width="50" height="30" as="geometry" />
        </mxCell>
        <mxCell id="GpUKaZcXAXT4iPthAJ1R-9" value="Bookings" style="text;strokeColor=none;align=center;fillColor=none;html=1;verticalAlign=middle;whiteSpace=wrap;rounded=0;fontFamily=Architects Daughter;fontSource=https%3A%2F%2Ffonts.googleapis.com%2Fcss%3Ffamily%3DArchitects%2BDaughter;" vertex="1" parent="1">
          <mxGeometry x="865" y="60" width="60" height="30" as="geometry" />
        </mxCell>
        <mxCell id="GpUKaZcXAXT4iPthAJ1R-10" value="Vehicles" style="text;strokeColor=none;align=center;fillColor=none;html=1;verticalAlign=middle;whiteSpace=wrap;rounded=0;fontFamily=Architects Daughter;fontSource=https%3A%2F%2Ffonts.googleapis.com%2Fcss%3Ffamily%3DArchitects%2BDaughter;" vertex="1" parent="1">
          <mxGeometry x="860" y="390" width="60" height="30" as="geometry" />
        </mxCell>
        <mxCell id="GpUKaZcXAXT4iPthAJ1R-11" value="Users" style="text;strokeColor=none;align=center;fillColor=none;html=1;verticalAlign=middle;whiteSpace=wrap;rounded=0;fontFamily=Architects Daughter;fontSource=https%3A%2F%2Ffonts.googleapis.com%2Fcss%3Ffamily%3DArchitects%2BDaughter;" vertex="1" parent="1">
          <mxGeometry x="865" y="530" width="60" height="30" as="geometry" />
        </mxCell>
        <mxCell id="GpUKaZcXAXT4iPthAJ1R-12" value="" style="shape=cylinder3;whiteSpace=wrap;html=1;boundedLbl=1;backgroundOutline=1;size=15;sketch=1;hachureGap=4;jiggle=2;curveFitting=1;fontFamily=Architects Daughter;fontSource=https%3A%2F%2Ffonts.googleapis.com%2Fcss%3Ffamily%3DArchitects%2BDaughter;" vertex="1" parent="1">
          <mxGeometry x="690" y="400" width="60" height="90" as="geometry" />
        </mxCell>
        <mxCell id="GpUKaZcXAXT4iPthAJ1R-13" value="user assets" style="text;strokeColor=none;align=center;fillColor=none;html=1;verticalAlign=middle;whiteSpace=wrap;rounded=0;fontFamily=Architects Daughter;fontSource=https%3A%2F%2Ffonts.googleapis.com%2Fcss%3Ffamily%3DArchitects%2BDaughter;" vertex="1" parent="1">
          <mxGeometry x="690" y="440" width="60" height="40" as="geometry" />
        </mxCell>
        <mxCell id="GpUKaZcXAXT4iPthAJ1R-16" value="" style="edgeStyle=none;orthogonalLoop=1;jettySize=auto;html=1;rounded=0;sketch=1;hachureGap=4;jiggle=2;curveFitting=1;fontFamily=Architects Daughter;fontSource=https%3A%2F%2Ffonts.googleapis.com%2Fcss%3Ffamily%3DArchitects%2BDaughter;" edge="1" parent="1">
          <mxGeometry width="80" relative="1" as="geometry">
            <mxPoint x="750" y="430" as="sourcePoint" />
            <mxPoint x="850" y="400" as="targetPoint" />
            <Array as="points" />
          </mxGeometry>
        </mxCell>
        <mxCell id="GpUKaZcXAXT4iPthAJ1R-19" value="" style="shape=stencil(7VrJbh03EPwaXQmSza3PjvMfBizHQhzLkOUsf59mBM6bqZ5XTzoG8E1+Zg3ZW/VC3sm7758/fLu/y/H789Pj7/d/PXx8/nwnv9zl/PD18/3Tw7P9dSfv7+Tdp8en+9+eHn98/fjy728f5sr51x+Pf84v/P2Ci6HqBOX4z/ohxv9++PVl+ZeHr7vlOeTyhuUl1IHL2/XlPfQOyxP5ekoh4mmSkPUl5ITryXFSCx2VkzpZP0J33x9EmdtxL+ulkPUptHZYn0KqZL0EOZ4nh87OU0M96rMGJfrMY31uO09cBj8FSA7tuIGpuJEdpC8BNwkkKDFZSWEcRRb7heio1DCOOhUNme2goRydwj6hROiaQz3KUFNQYuZaggKgrUOeA3qIx7hpiTpSHejYrVJPahEjp41QGCChlnoKmQHMNeIRYJYmwd9kec4GaKEQoZuR0VGGbjJkAjCdgAxKnc8AevSlkRYjnAPa8s0NkIMwLY0g+QiQxcjnAHNmRQCL6R5DARlqiAyQkLQNoEStZlc8kqmByNAL0sywRMGO1NwOg8aDOQIE0FCaGcwRekFAJzuYIwC1aqQ0M+3aEdCJWkcJrSKAMd/FTHsASW+m9RgdgAltak1OBqUAVQdgMihS5QQQ1rD/VnekRuygOZSBgEq0pMZLbodChNaCJdgEEPfWignFAMKO1EJ1hhPiS9qRBKa3sh1GqB7Ad+jgfInWSgaQowxme8Z8JnQHbu3Ul0yt4BozQpgvlTAct7J4MNc4oXum1hwUeClR1lBHM8ZUg/mSuRqk3UHzg2m9ZAREkuPG9r0NYEUdIzIrTo6+ZHw+OACYb1YCjFsHRpwBWF8yAUcS6HXtefVIggBW/kyhwXDmXSQeDADOZ4DKZNAQBwIYCRgAIs4ALCkaAJ2v0P5t5szuACyAImYgA2TGGtGVcFsVeC2AGgAqj+mM/YO5N00ospLsLkSFyVBWBO9IIDLWqCsF7miGksBWOG8AUytjvr764B1V0hzXVwTvaz5Gxubenu6ZDBqay9MsgFJ0zmSapnod2H6bpgsDdKSNS465agjI7G0F4TVTy0AAaxVNRBgJzMTKvE+QBaYteYxCm2WmYWWlut5yZ5qrVZ/bgjVmBmgZATfqSlEECKtcFQdjejOPpoGAwoXO2RmClet24oaAGzLUjgCa2hXrmVl0cVMnD+DlOhaibRHDNUAXJwMLiIjlySx+GTOl9b0dgI1zJsBbmoVccm2T0ni4tGE7AJUhuh5FaWN26Rf2EccTr5dBufN1TxusuVTnGua/POLycGrlR4LiQQcdb84dIgLiDZpx5FpvCK0IoMW0Yhc0A4hr6W2AWQCBa5RVQ13LKDB8NADt5ArWAvMTvJ6Be4HZSPHyJCUEMDuYXaXikYRl9u6yYqKzeJNB3YSJ5TitSGTW79JBhRtvWk1GS6wSCjTIhdO9G9HOqRb3JejkrNRtnFsREJcprzIfdEGDyjAUvdXq+xuN2c9+92e/+3/pdy2xCwJoYk9Yhk5f4jMsKB1mPLBqRrC5vBFxBoApmcU0BfjBHb+XNjLGfjfxDNQxPxjzsZugWRK6axd2oaD+YqfzhOIa5FlM8B2wlM68qvRDYFmKfu2YWW4NKnCQLbxu9aNy4Wr1w3hZenvtuH/75bUXCkLr1pMrC6GGO7kUEd5ajhXy+2qGszeOTrZLvXNAO9khs9ay4pRs0gJj7+KcL1Mis4BMEQE3rvCwn840oXQ9qfnYhYLxHFQCBmAduyXZt92XXVLgDkAvOrMbPiq9suguP8xiggCa8RJwa6c1Xxs4zDHvYg1Ha+5avtKZV3NvQsy7WC/aigNwb23uJZJ5F3u6dPLawbyL7eDaMvMudqvYkgPwiqxFV8JlWpxUxelm4xmoDuzjzJTskrA2dG9TAwug6uxQ+TCnJoyHKrR0KO6NVOnU0qXijKzw6+CS8BWZyCp9TwHS1tR6AXKlbZkkDKDUV4o5BeSxvH8DJErG2QUQH1XOh2ygJDpSywmrJVmudb7e6sGjAJleZ/uXf5zp/cvCRC8G/MvFRKfL/mVkogZzDy+5udyzzrzUda5NnI1n6p/uSeqt5cAqmc7c3CQz0bFKxJFeor15xKIi0feNcT2tuiwvxA1cO5joe1S3PNKHWe4wcWXm14kaaXfgFMnfPzkzRZpQnRNE+mjtja+eby63Py4PrD89fPny8j57///4INt+ennMLe//BQ==);lineShape=1;strokeColor=default;sketch=1;hachureGap=4;jiggle=2;curveFitting=1;fontFamily=Architects Daughter;fontSource=https%3A%2F%2Ffonts.googleapis.com%2Fcss%3Ffamily%3DArchitects%2BDaughter;" vertex="1" parent="1">
          <mxGeometry x="751.3773684077507" y="465.37035612517366" width="104.92013201054192" height="60.432425534399954" as="geometry" />
        </mxCell>
        <mxCell id="GpUKaZcXAXT4iPthAJ1R-21" value="" style="shape=stencil(7VrJchw3DP2aubK4gNvZcf7DVZajKcuSS1a8/H3ATDgzfOx+1OTkg25SD143AWJ5BHEI777df/h6d/D228vz0+e7H8ePL/eH8MfB++Pj/d3z8UX/OoT3h/Du09Pz3V/PT38/fjz9//VDk2x/fXn63t7w84QL2bjQUN7+Oj2p1YT875M/T4CH4+MIsGUEZCMc4NIIiP0VewAPS/LG8S/4PABKMV4oILgREIxYDhiXlIsJiy/EEeBNSRwwWillk7iVwqh08iZ4Dhg3LiZTuFkR4I1dfKEOACnGcqWrHwFiMltSMWlUWpypbB+qieNO6xNHliS2O8IZkEwkX1BAGnc6SF/kLmD0pRBoPCggj/sQrPHEWxVQRiv5aIqjANgHV03lS6qjt7rQ934XMOqgW89UcMaO2yDGsV1Q+XGf1S+4xnlUQG3GTZotyP+37bvyGeRlYZ8I8iy/qL4e5T0JTZVPAvKO2UczLupr2Xq8SZM8s2cwzt8mD0GzWI8YW2/RV4yUW+wpGJOL/RIMmIU/xJ5pX+lvEdOWN57rGyDzGhu4v43+E2l8aaKW0f7ZRFZgk0njekp3qG15wfxQTSb21Iwpo/84R5OuT8aPCjhPeZFXBgEZiKd1TbFlAmTiQ+1n0EF6FtsGWNwEF6mXJmMzymcWBSbYSZ5xFmRRTZ4o4NGpVZ5xImfitP5IvFpzfpnsQ+XD9H62xXayp9AqY9GpVT6SKLPIrFWeZS1r4lg01KUqySqu19xrDyXvd6ZUlGfcyWORVHlhBLN//Zp1EP/JnXJfxbAnWUJzQgEDOQ6IPWLPANsPL9saW8yjtZ+/tuVlOtrQo1BLs5h3qUUd1oFEc9CF217kPfEgrQNwloucWAZ8P494yd3hL/Ks7sUp5IXqq0ekqU4yJq1nMOCh55y6LS9I1XMnLtvyGe1TKO/OU8hXI2S/cjAFQkzfwEIs9Yx2FTKs0heNMSgCnhaNEo2DLK1OQnSueToLRKpDLVMejZ3ubwMqsmMFsGOoAjBPaNzQ0j3XgtQp8N4nwJNcppS69XkiAhg7qBOnU0AiwdAaQxYBbKtrmrZaUzhb0kSrV18IG1aiOgQk4i5TjlB9d//X7oOfWMWZDO8B4Cy0cCbVwU+8hbqrYFZdBUTE7tUq5BKeFxuALSl3fn/NBbm3Ir2OvbrvxUNMaFbHAeh8iaa+BogIKMxb5yVlSi82lM6UAdeM59gWQMysCQnGKkRn18i0hN4MKErqJhrPuoh5TmRCs0YW7F41IszKqNtgnoxpp4L9KC2jlRGBiA0OZ2k3NznshFaTSIQq84HTZu6Fe1t+Yg6ph8ceE3PQIadJTCImMZ7pQ507CrR5LdjhUy9hvWuHTlTp+xtRQyaWiVcr0Yzgc7wF1E534BGOtwfSlCzUSckW68/QRNS4cSx/TbUz0vuAt37CWz/hd+4npIkxh35FtteAi6Cwpzyq8bKpAcF22E/3Bs7S2qfnY4tlILKsMl3RFXoMCRbTVuaN3IBl4GzkbfmIpEtomQkFK3GgxFQs5hS/umt7uxh6uxi6lv+9LoY23k8vOmXKifwiVZAmLi5qBTshi4tgmYjx4qZZpoPi4i5bkLiubssFu8TtPn4BgBx09vI9QIQRAd6mlPPt3RmQKLuXKe0qX6b02+PIjD5Z3BgCeboYeg9gxyUtpkdmwGI+pQHGfVhMwDTATTM24nA4ajHF0wDQr+dzQgpw4z4sJpEaYHSNxaxTA4xWWkxTtZIDlILPazXAaNbFRJgCoCWwmDlrAFgSn2qby2brvXD3BtdQwGLsBwpD5VfW8yRSa/GyO+6pH3XpUO0BBPiy5dVW2VS9GSGT2gvCBqlspXbume6Vhp0n5xZb1yYYKwIiSQP/Z6hyBdA/LjOcn44PD6cR0OvfceZTH53mRcP7fwA=);lineShape=1;strokeColor=default;sketch=1;hachureGap=4;jiggle=2;curveFitting=1;fontFamily=Architects Daughter;fontSource=https%3A%2F%2Ffonts.googleapis.com%2Fcss%3Ffamily%3DArchitects%2BDaughter;" vertex="1" parent="1">
          <mxGeometry x="878.2408928718344" y="257.76493545432436" width="27.43321834431049" height="90.8033697645127" as="geometry" />
        </mxCell>
        <mxCell id="GpUKaZcXAXT4iPthAJ1R-22" value="" style="shape=stencil(7VvJchw3DP2aubJIcD87zn+4ynKkimK5ZDnL3weMwtbwoef1zM0H3bQA3SB2PKJP8cP3+0/f7k7iv788P/1+99fD55f7U/zlJPLw9f7u+eFFfzrFj6f44cvT891vz08/vn5+/f3bp0E5fvrj6c/xhL9f+bp3IQ8u8f/8/5fuevvvL7++Mjw+fD1jaNXFuDAE7533hENc7be8olbng2EolxlKd0kMQyYM3jX7hnSZIYuTahjiZYYUXTJ6rURLsbjgkSFWwuBdTCtDc61fZpDsUkOGQESSgKbu1QViuFDnETeG4jwRKSTzhjQts88QzKFV0cQ1+nTNjV5cIBKV6WgbvboKsXN2eX1+23xx3y9Q/tZmAO5b2cXVs1txjdnMFaDPTojJBL2uxekl+wZwbfWhtjnJBfq8nreqk5LzBkxHtUwN7NJ7V1cHqtF1Yl/vZM1FVU9EokzT45ooNNd0Ko9f5SnVNZJYPPpnyS5Qeln1WVR+Io/qc/WHXKcFL/hDXuXPkaathJk3dddYqnZ51WcqLrHi4cpqr5FYiX40QYTVQZOnAaMpyK8eF5uLjMEUwJhdJS6tNsA3RJpGNanI6hSa6xNx6rjlqMkgWkJZ7aiurG8YiYaoNWUX1zOE7oQcWt1GVjsEPRVJFMVEQhDniUgaKAlqhyus5vdp1i11UR1VmfJuoUYrfk1YXrX2sS6noGtnqtGqCofQmQrYj5wtMWxe5AqjTzNRbT5Bz6uNYAlAL8RJtTBCGxhcZZVb/y1Az+JSG4G8Pt9PAS/R9wj0kehfOxMRoBfiP0oPpc/PB1yih9Lqp8H36fOOPCRelD6b8zJ95pk3z+iJfUerF4A+M/kLlnpP41fpzXlZYh/0KD+bCd5a1Td/Y92x6qejf1L7ZlcgI9LOSf2zVnw+yScaLynh88l5NR5DQXriP20r1Gf05LzaSNrzskqvNc6cl+SHMSXmG/SvjaEY+5L41XoRItLzepRRn4HIU2Sm++voc8eZNUwD7tM3jMcwA2KfvuDwFmjBVvqI+mT6z2bA5frPGetRoLOk0hfMt2wSUPqE9YJNAoMe809l+tmhL0z/O/KwyXbvvCx+rT55vbD28tzfjD9ss9OV/ua5fTs2uUrPJo2I+crzeKyzi7/uvFVs/8CQBc1XAC3w+t7Eys/isZn6xe3b2kS8ruw3PNY7T+O3b4P4dfYd/QD2D57Vx4aQnKdIyhlMeRbwrGDrpA9D0syolwTKq4IiP0BF7CLSOVIVBAGQeANkEkrhDUSa/deGjVDUdRgYMFEKFXQTkAPN4y8IUGFkzgSXXBQ0pEMny9GDwUypmTm1meVDplNYDzh1KgNrm5ShmDOwuVAZ+k2TdhfEIAcDs4OgY4wzsFFDdtRKUVqNFEGGg+HN2qEyw8ls/s8YGJCnDBXauULrjTJg/1poQhpIdEQGmoGDmQgOGZJ5A6tpfWtxrz20xyIy1HoQcYahsqzkJ1587ho8Cdh4SDymAVgJmSMBAUHMEUD8Da0YBh6iYuKBJgFx2YYocw0x00SmFxcjgDoy5IOYtiF6c0xz97aQIYUQglErn3FGMobrJn5mQbi98pIuGNGZziADE8AWgBaThMUkUkxyYBSrowrPF6ZnO8To0Ik4ZmV6Tj7z2p6Wz9S2Z+Yzpu3JOUZke34uj50pDjAHM7McYBq2BaMFxM5cgSa6dwzhHUP4qTEEg4n52YNdibnxmddienymtpjhAb3BJA8wB4N5HmAaBlPl+reYrad3ahYT5jO+xZz9HBQuYtrm+awemU7O8xH//c7o/c4I5P+p7ozSBFTe6Nn2yZgCVnmEIwHe0hcW7w3vZCPNty3bO2vWP7eI6zbJpYN8tcZXPsRsG9AzSKxmrEdaoIj+NT+n1f/rDLh9eo/5qvGdB7NjEA4KjIWrdLIkE0NOuHAW+DZMKuZav1OG2HBmUKdgK3nR7GoOrRIrqJHKyhA93QYVM23HSOGq0DBPj3VPtsZkGjNVQyGeF0wkp0BLd/DYaqU4nWU/dnAdRi3JzlzwejnzWp/Q83Kk8LyOSmsoZA5Xb9tEW2jy3BiwlI3NPLrpCKPS2Pyj9CC/Nnd0fRdb6RoONkHBR2ukyJzBd2qhtcCmrkbliRPm21JXoPtCCSFhTfZsHzrNPLXRZ1qLM/qzNpss9xp/bnyzs+LlhTanFFswC+OebkbaAB5oFVu2FlzY6lsMXUpCsNw8+lme5iq8gd+OiIHAtaNiWK3YLflKJ1bN5FABD5beY8HFxXGvx/wu4gx3sIe/+y0BS9W7XyuwM+x+D3GAU9kvLhhQuPtNB538zNbsYODQn/0whb3hLVyuPIMyFCMSQ+fs9WLvdJHXAtTKQPvrgHjq+AjkgMH40sFlh2VgDd6uSOXWQx/d8Bi1sh3yXcPRu7w916BX27d+FXUFg/7w9hHWl4fHx9dvuM7/jx9t6Z9eP/iKH/8F);lineShape=1;strokeColor=default;sketch=1;hachureGap=4;jiggle=2;curveFitting=1;fontFamily=Architects Daughter;fontSource=https%3A%2F%2Ffonts.googleapis.com%2Fcss%3Ffamily%3DArchitects%2BDaughter;" vertex="1" parent="1">
          <mxGeometry x="808.5106747056218" y="104.15986856692189" width="56.00448852637578" height="126.44451138286922" as="geometry" />
        </mxCell>
        <mxCell id="GpUKaZcXAXT4iPthAJ1R-23" value="" style="shape=stencil(nVrJch03DPwaXVkkwfXsJP/hKsuxKo7lkp3t7wNGxdFjY6b5nJsW9JAEsTQAPsi7b5/ef318iP7b95fn3x7/evrw/dOD/PQQ49OXT48vT9/1pwf5+UHefXx+efz15fmPLx9ef//6fkiOn35//nN84e9XnHe+DFD0/7z+oXdX5b+//PIq//npyyrvUT5WJh/6Kt9cK9fywcWA8tFfy0fXZZWvrpL9JNcCyku+lq8upVW+uJbI/r3LAQGRAcQAsivkxEE3AFeQXCdH1juQggB2Z6okBOgmyaXF5hLccnSNrCD674YAzwB6D3kFBHqGFKYZHADvEjHsVJysam2dHjp7V1bTaM2VRgDJlXVLrVJfyM1sqU53PQWU4HJcAYVqqSSX14tr2SVyhlJdXu+hHZ849x/v6mpLTW2JrFAFPbRFl4kD1eLqakstTPs9B3S01qZRipiGfq+tN101iDFAcn7VUlX7jQRQZpA7AMV5tkJzfj10VesicUyNucGWhJqG+pestlQDjXzqwQkAfjrtOUBcWWN36VNv5wA94rqCmmMltqSRNMMKZfrgOaC4sGqpZKpWBZTVvNWlCtNSdQHOINTjuvG4El3gK/TVNIr6IDE+zbBhPUPmOX2k5NUfsq7JV4hr5Mtlt6W4niFnrlYFrD79Fm3vBRyB516Acg8S+U4BLMycAMJkT/cCNJD90KFTn+Z4BYAMlA5juRdQ55p33rQm4rzREgCyq8xFLSBNBnXlQECwkszAc6dPp0hJ6wgzsILnYSa5uiZF6TMBXMVWWQ+tDCqzLQXMD5IntT4HeBfX2CqJpl1NWbJGDWWBlZiGJsW8xiU5ctJV2oU8LVquMIBguFcm20kQUCbQ15vWAoFxb2UWcHEKiKze6JOlHgBNMWRLSkXwDHpxnC8lA4hshYR8aRQIRK1VrR+0pOZIbEnzPnic1nWR01ABtQZ6hmLqvrfK9BwQkTqETuu4YqqsoAZPVsgNOV+olC9pzoRaXUtBVtJoRgNrDZkeWvONwKHFVRI1NBugljTHkXvQWA2cTwvmxABxEoWDrFMWqoE0rkqq03rPC8s23fFgS3Q/UrAhkGmVqEER9p9ozSeCDZY04+y5fMCUfrDq81K9z+bCmzyjDCO+gWvSbBsLcsNIbVSPB/SWk6Sx/JrYwiwwz+UDZv8wL/Cqu+LX/Xvejcmz5n+TZ9WqyqcA8onoX+XBnjXObORx/4zLq7zg95k9jPPi/j3xL5Xv+H1W2Kr+paL8phtm9sPkKzYY/bzwK3mwTz+525V8RXtgIVflWwd5lvnC0TK6sQcuX/D7rNwcOciDfCb+rvJeQH7TvTT2w7i1ygfUJ6NDam8Vz8viczj6XTf64fYcjT55fIioH+HygvphpYTKQ8vP04pO5RvGB9ZzUf2b/Xumf9MQ2fqjR/0zyv6j8pre/KrPwOUT2n+g8wHNdx7lK9FPNP4Yqf41X0O+4PlU+YDH7zfi72LyqVB7Vj6T1vicqD7F+C/vy2iZ2td4m2l8E1M6FFpfpYD5otLSJCVsXfEm/2h3gD0cjPRqjAAXFsJMmeeAiBljjJBY3ZCxftMgwHJerrNDf1NoMKXmjkY90iybO+gtrFFLiyVajiXjxrxXXArGaQWwdl1puKVNpKjB1KCRUqGqtRRQY6Fctxouqs5DAQ2DkXoPi9bVFt6Zjk9bMFsqlE+3iPxbHY5ViGM8lBDAKqaWjFobnQo02wDpvOvTcIgtvNvQ+mwK3bS6WNQY3TeIwolGjTGQhTIu8+lMxosbI1XW3zNEfLQcedsUMonW4mw0OF4CrA6kxT5tLnc8dOKzxODNc4VN7/cMwdvLZ4hNB7vjgGbXI7eATRfeAjZ9fgPYTRIsYDOrsIDNNOQMQOctFrCZ6FjAZmZk3Ho3lepY/O7mXh2fs+wma2asO2Z3LNJ0M7D0M35eAaAAGPNHPmRCRiazRrkCQNdxzFDZTVdM1SXTNuUY0KwBXOkBnRkVzFqlTkVfhVcEdG7eyQzwPddSRFtSAkIHNMElAAil0s2wuJo4GahYaytjYXGpme5vrbQ6VzIgsEKbTnsO8DNGHHTdT5p2RZmgX6YUJ5ND14wNJKU4rANZI04H9VSN3PRgonCGRJ+bFFPTN56zytHDPQCFdi01qCTzdImVxdm0YRpPWTmYd0KNhvtkGlXjiQt7EWbfnPHIJw3phroU622JYH4Yb2LY48WOzUXldYxYRtOtUgCjrlrDQLttPKJh/RvzsEhDGyuQQ8K4pIDOCFOcZdUBKHRk0XFY3jfFpXn5VykPsAdotNqV+fzmRp49mY3mzvjzmogT4M2T3IgxcsgTz4lYGb+RiAv5YPbDbC7M/97KM4NARvJGzC7k4WnDDQW/AARsyXCAR36x2ZGfGePOE9sHuVyjHntKmxszLaWNRfyPR+Abef3h7cX5x6fPn18frN/+H1+o659eX7fLz/8C);lineShape=1;strokeColor=default;sketch=1;hachureGap=4;jiggle=2;curveFitting=1;fontFamily=Architects Daughter;fontSource=https%3A%2F%2Ffonts.googleapis.com%2Fcss%3Ffamily%3DArchitects%2BDaughter;" vertex="1" parent="1">
          <mxGeometry x="921.263904043032" y="119.24509039316172" width="59.24622966204993" height="253.45054508148303" as="geometry" />
        </mxCell>
        <mxCell id="GpUKaZcXAXT4iPthAJ1R-24" value="" style="shape=stencil(7VnLctswDPwaXzEESfBxTtP/yEycxtM0zjhJH39fKB6qJGStmh56yk22uSYI7OJB7cLV8/3N037n3fPL6fh1/+Nw+3K/C5923h8e7/enw4s+7cL1LlzdHU/7L6fj6+Pt+fPTzbRyevp2/D79w88zzicKbkJ59+v8TYzE9e2bz2fAw+HRANIIqBgglPMAkI0dAjk/AFIgXwDAkQsjIFMBABZKcQBkIU4AEKiOOxRHzADAFA0gUgUmVarjmasjn8EGemYeAZECAFQqY9iqxiWg9dEYlNuOF9cXyqNLayGO6+s1QqODaiUH1ifKya5PwKFCUof17NRlbh2g7ivvAigpeWERIJEnlsWJPQgxeVl4FETAkRgPJUg51+LTMSIBXc7e6BkHGOSojutVAhEwVGU/BiCrZCAjeMwrmiYclowfDRJ1AQgwR5LRoqAsR3mlNAk2gMqIQYg1xjxyyM+JYy03xjFomsuQzFQHaTRpyhwoCkwy7uCpAFaEbHOpoyRAZgvZbMhS/39MRAxdKupAU9CaLi6vl2buTGuosuSsjNmTAINSpGwAqSn7MqDY1Ki8SoAUqhOjZPVRBTHLudF4BghFQOzCTSg9sUHUVOqmSwhKI1Q+MoUxzCG1kni5Ps0lflYzwxo+ZVsjfw/zlwLyGAcJVIDWuoIxI6SpaXULc4gMuTEdYixroikJhFprhjEpYb1p0UjBAjIySZoeO0BFgQgXdkiAG9VbbkjFJjEFtl6KCOAWoU5UMMCcQSPNiExs+zUlU0Re4sa1jq6oAVO3OgPQOKAzzOW4A8AWUlpW6QFoh2yrlQIK2qG0DqoTdUVsrbZaqVsD8lJt3OymkYpMUoAJXIJtkgJM6lPyQZOKrVhK74SyRrZdgwpIsESXitugxnIHmGY85UUScBuAhUkIULxtZOI8EqwVOTPxRExvLaOmE5hKEGoFFslYmyc0qGorEE27V1oTe7k50TxnAIK7H2kGdK2AB17S4d20rNqdILZGaZl0BjBl1MA5Gzg86AWhYOaSNoquNaymN9FpHc0Z06hqTpBhVtJJw7Ss2oYXYJL+HBbEQD0iV5tZI8MoTEEyJdFjQFhMSwLLiUbVjzvk1AK5Nl6ZvFekte4fVxhvHv+4wvgPVxgoF73/CsNcSVQ8njub3wu+UpkHkO5aEc0LYotmxhIrlkEJx3fKnGZa8DjAqTVPXXfk0Z2KmjQeYbo+RmllcYaNC2oFmJoZA5SxJl9zfRw9vg2ulqaarT0Ks2s1uGtFBAHYEi/iq6pp4DdXVRUOMEo909ZuAUKb3//WpGibzq1Di1XDlltl0eHhwE1XhsatmBr/9HZkA6APf17G3B0eHs7vcvrf7csb/er84idc/wY=);lineShape=1;strokeColor=default;sketch=1;hachureGap=4;jiggle=2;curveFitting=1;fontFamily=Architects Daughter;fontSource=https%3A%2F%2Ffonts.googleapis.com%2Fcss%3Ffamily%3DArchitects%2BDaughter;" vertex="1" parent="1">
          <mxGeometry x="925.8533729887135" y="111.08217844593082" width="22.929925636723283" height="20.179874816647157" as="geometry" />
        </mxCell>
        <mxCell id="GpUKaZcXAXT4iPthAJ1R-25" value="" style="shape=stencil(lVnZchw3DPyafUWRBM9nx/kPV1mOtqJILlnO8fcBa4ujYXOm13pby2iSABrnXPTTj8cv3x8uwf14e3358+Gf69e3x4v+dgnh+vz48Hp9s18X/XzRT99eXh/+eH35+fz19u/vX7pk//XXy9/9hH9vOCcudVBw/93+0JqU219+v8k/XZ938l78Iu/yubyKK7N8kVbO5bOEOMtniZG8x0nMMyBKZAokUT8DggSigZmotAlQm9RGAFmSzoAiymwUxMMNUYongCJ59kL1Uus5IAaJsxtKE09uiFkyAPKw2yEgOQnzk4qORx4DVMLsh2LcUgJI0twEyHU88hhgTJu5lM0zDNCGETdAFCVmzR6pkTdXHgMUyZedeEKNnMTNOqQqzhHA4riUxRHHmRHdrHSKI8aPAZYg5ohLgXLJ/JpmahhZHDGrMSfOno6V35BGBG+APOh4DMjS5ifFKIk9qQ4ibAAVT/KSxRckgchDtDrR2XHRSSXxYIDmEcCsZDkCcrE2yewGjzGtVRphqwGKIoAFUA2Swgwo1A91oYbmwa5jgPl1tpJaAQgEkJYnxWG3Y0DGmLZ8zupDrwYzl9RzHSpSQ90ok8eAJjr7IdRB+ENAs/PmJ4VCs3fz2DdY1cskL7UlCYRE6W2ApggIxHG9jM9WCpE/yYri7OnAS5YBILeGMNLzGQDSjLeII9RoRu9ZaW+ZisSDNTtujgcfxxFnAFDab73BGaDM1PCe+yGi4/zGrmNAEg89ojhmpCR5roll6HQsn7G9SlzjPDrULdy4vIXKXH026h7L10HLIe9owe3yFeSpfarUgPLs/DYahJ08s2eToCjP4qxhi35XHsLM5Jk9rW2LKE+qlMlDVJr9ib7eOQwyNxh7egEqEO4osMizgLEODB2s/PyEDlZOiNBQnhvUoYPp+UbQRZ4Rro5p6BftYwGzyPOATKgv9W/FBMQbr/7+JQCYPSsOLncD0iOh7wSYLgnlTkAi/++8p6A97ySghnz2/D1t8ded81E+MH99VL7iZOrpjsPkYfRVSUzfMlYguwLGCkAe/eeuQDL7ZOwJGre/FVRoCdzIGGcABy2Bp/NZL/FzRuxdCu8JYFTxfA1kXUqebdQ7LXZDRKdZL1eYlXRpYAMPAx3n7ftRlid06anjyExngAA3pNE0nzWwEMm9a2epN2Dp6HMB08HjnGxkLSy5OEzWodEFR92G3N30pMRxNm5BP2fzWSZPsoEuz/GjgY5bNjJCx2IzJtsm2FAKFdOm2Mh0iFIhxWQ+6yvmvL5kZGPvssqyWT+y5UDArKSNlhEDwDCkjT8pDCPuNyIM4JFLBmjMrE4K3OCpp/saCG5QOj2VirU8Rqp0ybjajZl2gyVid9S3ayTzFUsCsFLkS8vixsy63xCyPWpDLqVIrZQLcqlvOdkNGTeEfY/KFq9REiyPHX+S4hSVA82t2Y8iu9s2s5KVljavL3tJ1khluWHrRI8B9oBlJ8+UTh47k6L081EsmPk6fwlbLVwgt1pIsd2XZSFgq6UFNj6qjmqwAeKYxw4BYUn3VgASsVLw+F2h8QHArw1ZoCsOvySytkX5cYjiGrXx9V3Est74Rn5ZrfUZheQYPwbMnTzboXrcV77PECfyfjmfbbL9qEx7eZJfHNbn3dLgBIDt511AWl9ELOQOLMo1gKXO+5rkRN77j3jA4Yes1mgnuexc3tc8vyxfqH0+9uH7vrz9eP/K/u369HT7SL//f/wqb3+6fdHXz/8D);lineShape=1;strokeColor=default;sketch=1;hachureGap=4;jiggle=2;curveFitting=1;fontFamily=Architects Daughter;fontSource=https%3A%2F%2Ffonts.googleapis.com%2Fcss%3Ffamily%3DArchitects%2BDaughter;" vertex="1" parent="1">
          <mxGeometry x="930.4369495801714" y="208.97924836718084" width="80.03136880659554" height="310.58669405248565" as="geometry" />
        </mxCell>
        <mxCell id="GpUKaZcXAXT4iPthAJ1R-26" value="" style="shape=stencil(lVrJclw3DPwaXVHcl7Pj/IerLMeqKJJLdra/DxiZHLEx0yzdpHno90gQSwPEXfzw/eunb/d3wX3/8fL8+/3fD59/fL2Lv9yF8PD09f7l4Yf+dRc/3sUPX55f7n97ef7z6fPr/98+Dcnx1x/Pf403/POK601CHajg/v35S5cS/v/l11fA48MTAPoOqJIyBUS/A5KkwgFhBzjJkQPiBmhFguOAtAOCtM4BeQPULtW/C1CktXcBkvjDHgDgJSQOKBugNOmHgwNAlcD38PPxApQTwO/nUPI0lusAVSIAknS26SR5t6USpVcCiOIcAgLzBy8OvhDEk023JnU/uOKkky+oMftdrblLJqbRohQANGpLzUvaXTSrosk51BUjFiBLJT5dm9lD4l8oUycLEKWRPdRslhQkk5NW/3J75MtePAMESbtpJFUDiRrV4TmkRr9Quvg9kKUilUQ+dciyu2jKMxZeB5RpzAsQqQOpfxXYtKqBmLdaf9nzQ3JS2aadpP0cYqMuOox530PUuEQ2rbbZ9iXFPHd1HRDRRWPiX/BofDHQPajlQBaN+gpyDmoIbrel0KWTPegxQWIPlWYgVWLdlxSyJLIk3SIE4xCotYYVhRbA0XAfIn7BN3HE4/R9EMh8kUjOwde54gXI4sim9XGFJeki2RdMmPGca+jjDHvw9OC8k7YHAf2lssQufpdXLsMiq+TdLhoN9QXtrkonq09odXXymutGN6njRbyQxYQZei5rZ8ErzBRz0QxjqgHXropnvDMYY/MH+bKHIbWNSJhCwFitthnpdgtYGg9zKg+mnCn192g5Kt/J+5WGRFxPJPq374/T2W7I94T6T1T/UFfw0sgcb6OriRgNOeeKyKA0I3Dx3XYyZaURHUVrNLLVNGPeSl+cRZj0OD3nRoCCwiNSBqFeESLKM7NcSeQiT92kIOFYme+6LpVdRJD3LLdnyfvRehoDlZ5AnaUZgLET5VMd5BMxnZLR7t0sim7JZ3w/M02Vb+b9LKMULLEc1afKg+1rWCb6HKTYgzwjDcUUZKpPYs5j/RXky0E/qE+WoFUeqgCe/1UeCpkDQ89Yph/en7B2c7ROUvmK72f0fNQkaD9U/wnznKNpZcjjebHOiso31KdnRVjGHoPaPz+vgPo5+Fc27+f2U9FfGAdW+Y725tl6TPx00+Fu+iOu/1TUojyjJWM9aA+sUzD2i/opXN7Yc+X6TMbf+fvfJZ87Fv1+Bshb+QUrkBngb+Wvtusn0Pdrfuwe5FmxrPkX4lWk+tT8jo0aXgQqz4OWxayobtETaBxx9zXdOOpdGeunzFsPM3W+oYW03IKjKpSRp9l4v1BaTzSTzGUCTVwJexqDj7OuCfKAA99PWOh6bggJ87rWKyxRJOSRvtA+q2mYqHwn73em/iuznX1DHuLsqM/o+31H/TBbs/KcODvkDYf61aEtH+pjh3n0UH8beV7em+U0WhM5bOlVWi36maPelH+0QIMrqzKLhltRJIA4W7uJUWWG6BstIWg0VErA2ixsL4qM5Ji8s3V3YG2AYOIIJwze9HdH4OFdP6gQ9JsUULDE0W8mtiRzK6S+yEjJlWZJpn3FEfpBS3Xy6OsAcxvhO6974+xIv2kIB2bTzRCHNEvV6wE34l3ysDxi16niHobPs+zrMLlHHoNykLp7Wgz0tjqbc1C9NbKHXLF8jJleSSrfAy3FMhV93fv9TNML0GjsGpeo+8ElR9U6SlroL3GOWCpyUD17Zq3jMttchbEqqTp0oFRoN7D62chegEoPrkZsCKZO41JdFy6L+zl+S1on81yAQEur2mbCXoA4ye91QMdzUPtlzanmpk4WYDHa6wDThc6FpoeWJmVdADUWkh9axXppdMTYQIkhLsXRJfV1J7oAnMn2NG/7FiDQQNbLvDlegEibDL2itZZEuwC9492ZAjJrozrDp0angs17dFN9HAZEtH6ATRxGUCzgMORiAKcxGgs4DOp0c8N1GAWygMOwkQGcxpk6NqxOA1MdGdxpJKtjFDgNfXWsjU5jZR0zymlwzRhfP6u1IYCNoIwFmCWxu2F9DNNJ+gsNTB2HvgaA2xKWwI43A/savngHwuqJLqphxD9tu+GIyEmxZnTtdHR2qvE44Pf+uckDQP+4jGl+eXh8fJ3yfPscxzr1p9eR0PjxPw==);lineShape=1;strokeColor=default;sketch=1;hachureGap=4;jiggle=2;curveFitting=1;fontFamily=Architects Daughter;fontSource=https%3A%2F%2Ffonts.googleapis.com%2Fcss%3Ffamily%3DArchitects%2BDaughter;" vertex="1" parent="1">
          <mxGeometry x="940.0140657127549" y="64.56539452643744" width="70.64464984301458" height="145.9965162514161" as="geometry" />
        </mxCell>
        <mxCell id="GpUKaZcXAXT4iPthAJ1R-27" value="" style="shape=stencil(lZbdUttADIWfxrdnpNX+XlN4D2YIjYc0YUKg5e3R1mOIlkSd3vnv88pHR8c7yc3L9v55MwV6OR0PT5vf88NpO8mPKYR5v90c55MeTXI7yc3j4bj5eTy87h+W8+f7/mQ/+nV462/4s3CNUEKnAr0vV2JCan+v3C3Abt6fAxmlGCAJWnWAhsoGyIKaXSCJAUoEeyUltGyAqis4QG2IFmiMFh1AVbIltYLE14FCyFYlJgLRdSITJNolGtiRKRGq7ZzqQE4jooBtI2oFO4BUkAVK84EMsrrmBhIHKGMjUkV1VIphXCGqW5zO6W1pFggITklaQK4G0CKzs0KuaMkCGSE53lARrZlU6OB8dG+TXUFbGfyBoGFG6V8zykPjCLFcB87c/OkNWoPh8hI6MBbQofJa3UdysGtbX3FZJh36YUg1GJySeqzYkr6i53KrBeXbjFYnBjQa6wBofHozmhCHoVZZHTN1QP4HkDima09Dx0whrm7+BBKyE0yc1rQ+i43ofHRBtW4tDHHaEMYwzrym7cXn1ar2AxKvKXLteWuLSODg1ZNsYgRfUc0TWz831xQcR4GYkZweBxmBBHEmRz0x/Bm0AY6garpBofHfpgdfO47HebdbNizn98cdil5adjdy+wE=);lineShape=1;strokeColor=default;sketch=1;hachureGap=4;jiggle=2;curveFitting=1;fontFamily=Architects Daughter;fontSource=https%3A%2F%2Ffonts.googleapis.com%2Fcss%3Ffamily%3DArchitects%2BDaughter;" vertex="1" parent="1">
          <mxGeometry x="1028.8631549603633" y="224.8554605684617" width="2.5146227402378827" height="2.522336761604606" as="geometry" />
        </mxCell>
        <mxCell id="GpUKaZcXAXT4iPthAJ1R-28" value="Actor" style="shape=umlActor;verticalLabelPosition=bottom;verticalAlign=top;html=1;outlineConnect=0;sketch=1;hachureGap=4;jiggle=2;curveFitting=1;fontFamily=Architects Daughter;fontSource=https%3A%2F%2Ffonts.googleapis.com%2Fcss%3Ffamily%3DArchitects%2BDaughter;" vertex="1" parent="1">
          <mxGeometry x="250" y="250" width="30" height="60" as="geometry" />
        </mxCell>
        <mxCell id="GpUKaZcXAXT4iPthAJ1R-29" value="Car pooling&lt;div&gt;Application&lt;/div&gt;" style="shape=ext;double=1;rounded=0;whiteSpace=wrap;html=1;sketch=1;hachureGap=4;jiggle=2;curveFitting=1;fontFamily=Architects Daughter;fontSource=https%3A%2F%2Ffonts.googleapis.com%2Fcss%3Ffamily%3DArchitects%2BDaughter;" vertex="1" parent="1">
          <mxGeometry x="400" y="250.00000000000003" width="120" height="80" as="geometry" />
        </mxCell>
        <mxCell id="GpUKaZcXAXT4iPthAJ1R-39" value="" style="shape=stencil(7VvJclw3DPwaXVkkwfXsOP/hKsuRKorkkpXt7wN6itSw8aZHTuWQg272iD0kiK0BYm7kw7e7T19vb6L/9vL89Ovtn/efX+5u5KebGO8f726f71/0Xzfy8UY+fHl6vv3l+en3x8+n/3/9NFaOf/329Mf4hr9OOO+yH6Do/z59EJpr8v2Tn0/rH+4fz9ZHlwuu72R9diXs67vz4fL64J00AygEUJx0BARPJIiuFANgIi8JzwH5MkCSS0boQGSQJeI5oF4GpOgkGkAjAD1S/SFAdhUAahidAIrrBlCIppP+WQyA3FL2rjVzJLJDFpeN4mokgOL8LoP6B7XuNi9xAaKL5Fpzd2VXXBSXyA7Fu+oRUMgOJbgeEFDJLRXBEBAT1UPJLuUdsO7tGFCniAtQp2aOAd0JyKAeQny6qmkkBCRypBpxB1mB5xiQXACAxhF2pOLCfiTJ1Kdrc2k3DanT4A8BzaOLahxhsbvFaTkTkIJLxKdbcnHfQQNPI6bR8vy+BUjOE49rZZ54AfQrEgG0mT7OAIHJoNHbowyZAdT4QHHFFXKk7k0Q6FToHuafzzzOsx2CKyYuMY/rEW1J02QlKUsBfRc65PnJMUBQaAU0toMcHCmwW5J56+cy8COBLYU67+0SoNuEwmRIB/khMhnSFHEBVJXE+AbAhHuWp8eRILYmmnaH0LBDpoldARV20FTPNZ1NuGdpVwECR2qUL6k/9I47CAnG6qLVeBxL7K0bPQTXyA6tYrhXW8osemfMQGrekUU+wSCgHseMT8N9KgigwTgYcp8pldYMlCMCEkuKGlthh+SE2JImRQGhPU1ZCogRAZlcqwL8rrhOrbtWZKG83ND1dRe50Viv68tu24Um9bF+//7sMj8/fP9K8m88v9B6zN7PctaL9w9Rm1ZjQ8G73ywjfCOt0pDN9NWQoXvKL2rDrLNK6ks+AxTJU2qrXhyhQqceo5xNUF+N6FcZWN71Van9KJ+qELci9UiNvWUvFzQtdxasVeJdgii0XLCJf/gkSzgZyYuW7JUdSUPzrjSl2pEJXWcZuLxMaBjq6gbgllcYW8eKPkequOCXoS1E5VKbtkRJtCJRqfuu6lErMkUUNNbCc5rSHbhXPVJligiY+RWQWAljMr8CaJotyI/GLTFukbCkV6Eb20GQdmpFHQjH00SOeuizS3YpKAGh0gKZUQVN5G2XYcR9HrbBltQJWVVVTaGn1sVqnlqR2KpPCc+coDg1eMYiFZADAlhsrSYKKIAmQxUxI6AwGcosWM6EZiWMAqq5VkbOFQBtulenvQjYPU6dthNrHYDd+EYFwY8E8V5ThnBOBQW3hgWWpIfiEgKuGB9EYwUwF7U0bBT5TGjLOyPNisOBPF4ryyiHLsrKsAPqXHhPzOSHkTG44ircEm+tDBc1gMqDAFYknhMyRUBN3zstDdVcuwkb9F5X5j9zasqJC1KsfqVoKPgso6pmCeLHAeu1YCWIQBO1ZhSQQZMc7TV6rFYHd2AFdDA7RE6No0mjnndkE97S6Pczcl+wps9tvuy8kZ0oh2NJzvKfzNNoNz3fXHjLqmC/VAG0e1PnrS9A5jy0YYmi18pqMt0BHhEzL1pf49Zi351mlEFeduNLyup4nw6yolYQLCuOpthufJLok8bQNDQnO01B3WOrJF5p1i8+tWIlf0RU84bG3rUOVJqWc1Zcsu6EuqiHbgN/sWv2wdvT57HRssoIYHHpvQP13oH6X3eg1KIzvBvOhstFl9nts9Am72gjG/thUSJiF1nZN+tACQa6Snlty/j9jXfQ6nyBfPWvxniF6cSEQCPEKA1gZEWmSi51xN5f5/7l6xxLgO+vc98B//XrnGDxrDvQLqB5qJLAe58BCaEUGrKV6uAQQKBloQKgLEyVDvY0M9iTA9WDkqm884q8xsYuhSXcQWhea6Zzc4UFa6CELnf2LvF6J8D0RqNFXjPjg+Na+WsJ1Gwp84ZYQ+NLQuNS1UgKRwrUp6ve+q4H4SOTNWK4lzUrdwzws5RYgEw7DKWbHTL1By2tYX5QhL7JaGmNQzFxsrJjgEyOcObTbFivBGRt4qdmjgEei20FZDYO2DHMxE5bbtm8ycT1yTGgYMttUB+iaXXIBKND/CnAzkBGrmk7ZakAFsjsHGfMtBS2k6IKYGHGzqJqUmS2ZKddrwDsPO0AED3Yid3Iy3k7E6wA5qJ26ngAiKbtXPMAED3YyenIX+vMaPaYiSEbmNg99Ez8zVTaw1Tpejw/bxZ4bFQNnZGM6+f45dl61mvzxvt5/9wbriezOXFpPdxPpHWJXR/oIKM9D29cWHl53WnuM/BwavQVeBfP/hKgzcz7Nnu78lOG6+v1H6+/m/hy//Bw+tnF+d/xdxb60ek3GvLxHw==);lineShape=1;strokeColor=default;sketch=1;hachureGap=4;jiggle=2;curveFitting=1;fontFamily=Architects Daughter;fontSource=https%3A%2F%2Ffonts.googleapis.com%2Fcss%3Ffamily%3DArchitects%2BDaughter;" vertex="1" parent="1">
          <mxGeometry x="284.4380892221466" y="287.0369577611343" width="111.93690983033343" height="18.03705104604319" as="geometry" />
        </mxCell>
        <mxCell id="GpUKaZcXAXT4iPthAJ1R-40" value="" style="shape=stencil(7VrLchQ5EPyauSr0fpyB/Q8iMOsJjE0Ys4+/39IOalpZ6mx848BtPFaOpKqsqlRJl/Dm6/37L3cXb7++PD99uvv7+uHl/hLeXry/Pt7fPV9f5NMlvLuENx+fnu/+fH769vjh9veX931k//T56a/+C//ccNZE30He/nv7Ijlj0//f/HEb/3B93I33xgUc//2b5fhkvPp9147HNxPUeE9+30XjiwJkApAZqgKQFflgqkVAsARQTFV7+L6rJSA4U9SSKCAbFxWAWCmK0fUeGCCbpPwcIvGzH7T5WUAxTm+aALJYSZuVAZJJihoUUE12rwEUa2pWABI9xZsIjrOmEC6VYMoMiM3kSgDRtNlxsZpI6F2ES7PjxPeFkK8UNGtM3ErNWFhSNI6EaJWkNFMjbnZbAzzSO/IsVgM6LjRTSTzUZEqbAZX6oRbMGgJgia+KX2d6h2Iay5QOHdcBjgD8CPkdIBcCCCOT7gCRzRDHFncAmu0TlhMBWEK+lo2FJWVT2R7yMOIOUAg1mjjOISCzJVVTwQ9CFrakMpizAaJJzKwZ85JUjMBmSFjjek0i9BbH+XkGH2mNE2pAxHk3FnlEPjfT29WxyCN6h3lJLpnGlmSNnTfthL8EIBHn5kTmLI/pOtw0AHWop6PxED+n48GoZSTzoxzTCoz3LE2WESpjfKYuqCoUkonMoAWTpJCI5XkdalT26PV7KmK6fWb7OxPZeqqx8/qlOPPxPsF4T8KyVhTbQlkSM51vuB7L7F/HcnfrYXyQkmNhPOOnRFjMYH/H0pDDOp5GiB7liDzbs43Tw1ESghorEV94mkOAiBk2w5bJd2nOEkpIqk6zi4XThVXAgj72lZJOyo2DCuho1hJAhhqbRmo9AsCmo+RFwqNWsaDFQgO/qcBJYZxojqwEzEtt5L4jP/jZrLnQ3CXUaJB7o4mMS8GkWZmLbE1sDx7FUReVbAZr2mzWHoBM1VYUeK1RrdMLDpRMe5pirMcpGptCcnZFQGI6uGASE7Y0XqWAfT1EWBouKs2UwcdDACwp0wjqewBHJO45sdJMJuEj05C9tFUE0FpYUWl3sc7FjtczsGqiqlvfw4mc0lbi9RPqVfcD3zQI5+5pPkPSXGJsFQAsqZ0FUFDxkDnAq6CmESchirL2JKiFTCqoCxeSIPQE4E8CwqJdqRRbxWh6HYAf2xZLSrTvoU/0vWbwxNRUyJ1kgdcBej2AkpKpomwOc2Xl7VspWrCkkkxleiZiScmNHwxFjECl9rQl9iP3blog8cJbxjFw17CifY9NKux6N7RnkLFL10/0zKybETfV10ZH6rBRAkK0jK7a4YkeDugiWNgegjoNS57hesbOm3ZbK/FQz4D69rRhJecT8HTj55nf5+3f5+1f+7wN+vykZ2bRPpF3wBxeCxUqwGQ8qk4+3qMOlgCmjcuADTPHdbBkrTzv2HEt3xMptCT4bZ7kdtDBYlQKqKPlvcu89CTZsAIGO6T0ErCTZ7suOAu0PsVM7Bi4mVTkC4BST7XNBRAZN1RjXgC0B6Ba/wLwJBvpiiYAdsnTry+gj+FHq/6I3yEigFpJXcH0iyqWwdpopOwAJ7K2KgA9VKmA6GZlJ5gwThMbINILw+rxriDy+45qUZrHQk8LpSmzboRfAyTPQeG09KKq5HFNuwEcbdOJ6sXr7cCvVcO4cNkAkRb/fjUMzdJEj56Ly+c0yLIELK63TwD6Av0EoK/oOWDxCOAEoJ8ZcMDiIUOiSWDxVIIDFo8xEtXyi+ceHLB4UJLopefiyUoabbh1CdKPYvhl2+LZTRpNhHWqVO96Eu1i6HdDid6G63dJmRYH/e4p0w60VevP9CLALtbPeGoXJErEARabPDLe0t+Hvm3iWV5JEsl3jBCr8azs6PX4If1+cr+eHja1Pd3J76O/+NMfzQdHS9Rr39mdj5cPPx71fbw+PNzeBO7/j48A5avbA8Lw7j8=);lineShape=1;strokeColor=default;sketch=1;hachureGap=4;jiggle=2;curveFitting=1;fontFamily=Architects Daughter;fontSource=https%3A%2F%2Ffonts.googleapis.com%2Fcss%3Ffamily%3DArchitects%2BDaughter;" vertex="1" parent="1">
          <mxGeometry x="520.4380892221466" y="280.06964864649945" width="134.17737546442208" height="22.261219468072454" as="geometry" />
        </mxCell>
        <mxCell id="GpUKaZcXAXT4iPthAJ1R-48" value="Rest application" style="text;strokeColor=none;align=center;fillColor=none;html=1;verticalAlign=middle;whiteSpace=wrap;rounded=0;fontFamily=Architects Daughter;fontSource=https%3A%2F%2Ffonts.googleapis.com%2Fcss%3Ffamily%3DArchitects%2BDaughter;" vertex="1" parent="1">
          <mxGeometry x="310" y="250" width="60" height="30" as="geometry" />
        </mxCell>
        <mxCell id="GpUKaZcXAXT4iPthAJ1R-53" value="modifies" style="text;strokeColor=none;align=center;fillColor=none;html=1;verticalAlign=middle;whiteSpace=wrap;rounded=0;fontFamily=Architects Daughter;fontSource=https%3A%2F%2Ffonts.googleapis.com%2Fcss%3Ffamily%3DArchitects%2BDaughter;" vertex="1" parent="1">
          <mxGeometry x="557.53" y="300" width="60" height="30" as="geometry" />
        </mxCell>
      </root>
    </mxGraphModel>
  </diagram>
</mxfile>
